<svg width="500" height="500" viewBox="0 0 500 500" fill="none" xmlns="http://www.w3.org/2000/svg">
<g id="NDC logo">
   
<path id="Vector" d="M450.264 250.028C450.245 249.109 450.226 248.209 450.169 247.29C450.15 246.165 450.093 245.039 450.036 243.914C449.96 242.376 449.865 240.838 449.732 239.319C449.637 237.912 449.523 236.487 449.371 235.099C449.314 234.274 449.219 233.467 449.124 232.661C449.048 231.911 448.972 231.16 448.877 230.429C448.763 229.566 448.669 228.685 448.536 227.822C448.384 226.603 448.213 225.384 448.004 224.165C447.909 223.508 447.814 222.87 447.7 222.233C447.567 221.426 447.434 220.62 447.282 219.813C447.206 219.269 447.092 218.726 446.997 218.182C446.864 217.431 446.712 216.662 446.56 215.912C446.37 215.031 446.199 214.149 446.009 213.286C445.724 211.917 445.421 210.548 445.098 209.198C444.756 207.754 444.395 206.309 444.015 204.865C443.635 203.384 443.236 201.921 442.818 200.458C442.78 200.308 442.742 200.176 442.704 200.045C442.268 198.564 441.831 197.101 441.375 195.638C441.356 195.6 441.356 195.563 441.337 195.525C440.881 194.043 440.387 192.581 439.874 191.118C439.836 190.949 439.779 190.78 439.722 190.611C439.229 189.186 438.716 187.779 438.203 186.372C437.671 184.947 437.12 183.522 436.57 182.115C435.563 179.583 434.499 177.089 433.379 174.613C433.018 173.769 432.657 172.944 432.258 172.118C431.593 170.674 430.909 169.23 430.188 167.805C429.637 166.679 429.067 165.535 428.478 164.429C427.851 163.21 427.225 162.009 426.56 160.809C425.078 158.089 423.521 155.389 421.906 152.744C421.375 151.881 420.843 151 420.292 150.156C419.019 148.13 417.728 146.142 416.379 144.192L389.522 170.712L362.19 197.682L364.299 142.072L307.963 144.135L362.152 90.6262C361.165 89.9698 360.158 89.3133 359.151 88.6756C358.506 88.263 357.86 87.8504 357.214 87.4565C356.416 86.9501 355.619 86.4438 354.802 85.9749C354.517 85.8061 354.232 85.6373 353.966 85.4685C352.694 84.6995 351.421 83.968 350.148 83.2366C349.028 82.5989 347.907 81.98 346.786 81.3798C346.274 81.0985 345.761 80.8359 345.248 80.5546C344.07 79.9169 342.874 79.298 341.658 78.6978C340.234 77.9663 338.79 77.2536 337.328 76.5597C335.637 75.7532 333.928 74.9842 332.199 74.2152C331.212 73.7839 330.224 73.3525 329.217 72.9399C327.033 72.0021 324.83 71.1206 322.589 70.2766C321.658 69.9015 320.708 69.5451 319.74 69.2075L318.657 68.8137C317.688 68.4761 316.72 68.1385 315.751 67.8197C313.738 67.1257 311.686 66.4693 309.635 65.8503C308.381 65.4565 307.128 65.0814 305.855 64.725C305.456 64.6125 305.057 64.4999 304.659 64.4062C303.348 64.0311 302.037 63.6747 300.708 63.3559C299.283 62.9808 297.859 62.6432 296.415 62.3243C295.01 61.9867 293.604 61.6679 292.18 61.3866C291.306 61.199 290.413 61.0302 289.521 60.8426C288.761 60.6926 287.982 60.5426 287.222 60.43C286.672 60.3175 286.121 60.205 285.57 60.1299C284.753 59.9799 283.936 59.8486 283.12 59.7173C282.474 59.6048 281.828 59.511 281.163 59.4172C279.929 59.2109 278.694 59.0421 277.46 58.8921C276.586 58.7608 275.693 58.667 274.82 58.5545C274.079 58.4607 273.319 58.3857 272.559 58.3107C271.743 58.2169 270.907 58.1231 270.09 58.0668C268.685 57.9168 267.241 57.8043 265.817 57.7105C264.278 57.5792 262.721 57.4854 261.163 57.4104C260.023 57.3541 258.884 57.2979 257.744 57.2791C256.814 57.2228 255.902 57.2041 254.971 57.1853C253.604 57.1666 252.236 57.1478 250.869 57.1478C140.724 57.1478 51.4351 145.317 51.4351 254.079C51.4351 255.43 51.4541 256.78 51.473 258.131C51.492 259.05 51.511 259.95 51.568 260.869C51.587 261.994 51.644 263.12 51.701 264.245C51.7769 265.783 51.8719 267.321 52.0049 268.84C52.0998 270.247 52.2138 271.672 52.3657 273.06C52.4227 273.866 52.5177 274.692 52.6127 275.498C52.6886 276.248 52.7646 276.999 52.8596 277.73C52.9735 278.593 53.0685 279.474 53.2015 280.337C53.3534 281.556 53.5244 282.775 53.7333 283.994C53.8283 284.651 53.9232 285.288 54.0372 285.926C54.1701 286.733 54.3031 287.539 54.4551 288.346C54.531 288.889 54.645 289.433 54.7589 289.977C54.8729 290.728 55.0249 291.496 55.1768 292.247C55.3667 293.128 55.5377 294.01 55.7276 294.872C56.0125 296.279 56.3354 297.667 56.6773 299.055C57.0002 300.48 57.3421 301.887 57.722 303.294C58.0449 304.607 58.4057 305.901 58.7856 307.195C58.8806 307.589 58.9945 307.982 59.1085 308.376C59.4694 309.633 59.8492 310.871 60.2481 312.109C60.8749 314.134 61.5397 316.16 62.2424 318.148C62.5653 319.104 62.9072 320.061 63.2491 321.017L63.648 322.087C63.9899 323.043 64.3507 323.981 64.7306 324.9C65.3384 326.494 65.9842 328.088 66.649 329.645C67.0668 330.639 67.4847 331.633 67.9405 332.608C67.9595 332.702 67.9975 332.777 68.0545 332.871C68.5104 333.921 68.9852 334.99 69.479 336.022C69.9729 337.11 70.4857 338.197 71.0175 339.266C71.3594 339.979 71.7203 340.692 72.0812 341.405C72.9169 343.111 73.7906 344.799 74.7023 346.469C75.1012 347.219 75.519 347.95 75.9179 348.682C77.0955 350.801 78.3111 352.902 79.5647 354.965C80.1915 355.996 80.8183 357.009 81.445 358.003C82.7176 360.01 84.0092 361.998 85.3577 363.967L98.2924 351.195L112.215 337.447L273.604 178.083L260.479 165.141L344.108 162.009L340.917 244.57L327.831 231.629L166.442 390.994L139.585 417.514C141.56 418.846 143.573 420.121 145.625 421.378C146.479 421.921 147.372 422.447 148.246 422.972C150.924 424.566 153.659 426.104 156.413 427.567C157.629 428.223 158.844 428.842 160.079 429.461C161.199 430.043 162.358 430.605 163.498 431.149C164.941 431.862 166.404 432.537 167.866 433.193C168.702 433.587 169.538 433.944 170.392 434.3C172.9 435.407 175.426 436.457 177.99 437.451C179.414 437.995 180.858 438.539 182.301 439.064C183.726 439.57 185.15 440.077 186.594 440.564C186.765 440.621 186.936 440.677 187.107 440.714C188.588 441.221 190.07 441.708 191.57 442.159C191.608 442.177 191.646 442.177 191.684 442.196C193.166 442.646 194.647 443.078 196.148 443.509C196.281 443.546 196.414 443.584 196.566 443.621C198.047 444.034 199.529 444.428 201.029 444.803C202.492 445.178 203.954 445.535 205.417 445.872C206.784 446.191 208.171 446.491 209.557 446.772C210.431 446.96 211.324 447.129 212.216 447.316C212.976 447.466 213.755 447.616 214.515 447.748C215.065 447.841 215.616 447.954 216.167 448.029C216.984 448.179 217.801 448.31 218.617 448.442C219.263 448.554 219.909 448.648 220.574 448.742C221.808 448.948 223.043 449.117 224.277 449.267C225.151 449.398 226.044 449.492 226.917 449.604C227.658 449.698 228.418 449.773 229.178 449.848C229.994 449.942 230.811 450.036 231.647 450.092C233.052 450.242 234.496 450.355 235.92 450.448C237.459 450.58 239.016 450.674 240.574 450.749C241.714 450.805 242.853 450.861 243.993 450.88C244.923 450.936 245.835 450.955 246.766 450.974C248.133 450.992 249.501 451.011 250.869 451.011C361.013 451.011 450.302 362.842 450.302 254.079C450.302 252.729 450.302 251.379 450.264 250.028ZM160.63 120.822L135.121 121.91L145.492 132.169L165.777 152.2L91.0368 226.003C91.0368 226.003 91.0178 226.04 91.0178 226.059V226.096C89.4034 235.174 88.5487 244.533 88.5487 254.079L192.482 151.45L179.357 138.49L263.993 135.302V146.536L217.155 148.618L247.184 178.27L88.7386 334.728C76.3547 310.477 69.3461 283.094 69.3461 254.079C69.3461 155.088 150.62 74.8342 250.869 74.8342C280.252 74.8342 307.982 81.7361 332.541 93.9834L318.163 108.181L283.766 142.166V115.571L160.63 120.822ZM250.869 433.306C221.485 433.306 193.736 426.404 169.177 414.157L183.555 399.959L327.622 257.699L357.67 287.37L359.759 241.119H371.155L367.926 324.675L354.802 311.715L250.869 414.344C260.555 414.344 270.033 413.519 279.245 411.906H279.302L354.042 338.085L374.327 358.116L384.698 368.375L385.799 343.186L391.118 221.595H364.185L398.601 187.61L412.998 173.413C425.382 197.644 432.372 225.065 432.372 254.079C432.372 353.052 351.117 433.306 250.869 433.306Z" fill="#213159"/>
<path id="Vector_2" d="M432.372 254.08C432.372 353.052 351.117 433.306 250.869 433.306C221.485 433.306 193.736 426.404 169.177 414.157L183.555 399.959L327.622 257.699L357.67 287.37L359.759 241.12H371.155L367.926 324.675L354.802 311.715L250.869 414.344C260.555 414.344 270.033 413.519 279.245 411.906H279.302L354.042 338.085L374.327 358.116L384.698 368.375L385.799 343.186L391.118 221.595H364.185L398.601 187.61L412.998 173.413C425.382 197.645 432.372 225.065 432.372 254.08Z" fill="#ED1C24"/>
<path id="Vector_3" d="M332.542 93.9832L318.164 108.181L283.766 142.166V115.571L160.63 120.822L135.122 121.91L145.492 132.169L165.777 152.2L91.0374 226.002C91.0374 226.002 91.0184 226.04 91.0184 226.059V226.096C89.404 235.174 88.5493 244.533 88.5493 254.079L192.483 151.45L179.358 138.49L263.994 135.301V146.536L217.155 148.618L247.184 178.27L88.7392 334.728C76.3553 310.477 69.3467 283.094 69.3467 254.079C69.3467 155.088 150.621 74.834 250.869 74.834C280.252 74.834 307.983 81.736 332.542 93.9832Z" fill="#72BF44"/>
<g id="Group">
<path id="Vector_4" d="M138.977 444.053L145.188 447.222L145.681 466.09L145.263 469.898L145.358 469.954L147.41 465.771L154.57 452.043L159.376 454.481L147.182 477.812L140.971 474.643L140.705 455.175L140.876 451.968L140.781 451.911L138.73 456.094L131.55 469.841L126.764 467.403L138.958 444.072L138.977 444.053Z" fill="#213159"/>
<path id="Vector_5" d="M171.114 458.982L176.888 461.083L177.591 489.328L171.893 487.246L171.855 480.963L161.56 477.212L157.4 481.976L151.987 480.007L171.133 459.001L171.114 458.982ZM164.675 473.705L171.874 476.331L171.969 464.927L171.893 464.89L164.675 473.705Z" fill="#213159"/>
<path id="Vector_6" d="M186.897 464.533L207.03 469.485L205.891 474.005L198.445 472.167L193.165 493.135L187.942 491.841L193.222 470.873L185.776 469.035L186.916 464.515L186.897 464.533Z" fill="#213159"/>
<path id="Vector_7" d="M204.923 495.593L209.519 469.729L214.819 470.648L210.222 496.512L204.923 495.593Z" fill="#213159"/>
<path id="Vector_8" d="M231.305 472.373C233.793 472.579 235.978 473.292 237.839 474.493C239.701 475.693 241.125 477.362 242.056 479.463C242.986 481.563 243.347 484.039 243.1 486.852C242.853 489.666 242.075 492.029 240.783 493.961C239.492 495.892 237.82 497.28 235.75 498.143C233.699 499.006 231.419 499.325 228.931 499.118C226.443 498.893 224.259 498.199 222.378 496.999C220.517 495.799 219.111 494.129 218.162 492.029C217.231 489.909 216.87 487.452 217.117 484.639C217.364 481.826 218.143 479.463 219.434 477.531C220.726 475.618 222.397 474.211 224.449 473.348C226.5 472.486 228.779 472.167 231.267 472.373H231.305ZM230.982 476.105C229.843 476.012 228.703 476.18 227.564 476.593C226.424 477.024 225.417 477.906 224.506 479.275C223.613 480.644 223.043 482.576 222.815 485.108C222.587 487.64 222.815 489.647 223.442 491.147C224.069 492.648 224.942 493.698 225.987 494.317C227.032 494.936 228.114 495.273 229.254 495.386C230.052 495.461 230.887 495.386 231.742 495.198C232.597 495.011 233.414 494.598 234.211 493.961C235.009 493.323 235.712 492.385 236.282 491.147C236.87 489.891 237.231 488.315 237.402 486.365C237.63 483.833 237.402 481.826 236.775 480.325C236.13 478.825 235.275 477.775 234.23 477.156C233.186 476.537 232.084 476.199 230.963 476.087L230.982 476.105Z" fill="#213159"/>
<path id="Vector_9" d="M247.354 473.761L254.325 473.517L264.107 489.722L265.626 493.229H265.74L265.455 488.578L264.905 473.142L270.299 472.955L271.229 499.193L264.24 499.437L254.363 482.595L252.92 479.725H252.806L253.09 484.358L253.641 499.812L248.247 500L247.316 473.761H247.354Z" fill="#213159"/>
<path id="Vector_10" d="M282.835 471.286L288.913 470.329L303.481 494.636L297.479 495.574L294.326 490.097L283.48 491.785L282.189 497.956L276.491 498.837L282.816 471.267L282.835 471.286ZM284.506 487.246L292.085 486.065L286.538 476.068H286.462L284.525 487.246H284.506Z" fill="#213159"/>
<path id="Vector_11" d="M301.41 467.928L306.614 466.559L312.293 487.659L322.493 484.977L323.651 489.253L308.228 493.304L301.391 467.928H301.41Z" fill="#213159"/>
<path id="Vector_12" d="M331.135 459.057L338.809 455.681C340.119 455.099 341.487 454.63 342.93 454.237C344.374 453.843 345.988 453.73 347.774 453.88C349.559 454.03 351.307 454.706 353.035 455.943C354.763 457.181 356.226 459.151 357.441 461.851C358.619 464.458 359.113 466.803 358.942 468.866C358.771 470.929 358.163 472.654 357.119 474.061C356.093 475.468 354.915 476.593 353.605 477.475C352.294 478.337 350.965 479.069 349.616 479.669L341.943 483.045L331.135 459.057ZM337.878 460.932L345.058 476.837L347.869 475.599C350.224 474.567 351.762 473.255 352.465 471.698C353.168 470.141 353.415 468.716 353.187 467.422C352.959 466.146 352.636 465.04 352.237 464.139C351.838 463.239 351.212 462.264 350.414 461.251C349.597 460.238 348.363 459.451 346.729 458.925C345.077 458.4 343.082 458.644 340.727 459.694L337.916 460.932H337.878Z" fill="#213159"/>
<path id="Vector_13" d="M367.851 470.985L355.087 447.954L359.816 445.403L372.58 468.434L367.851 470.985Z" fill="#213159"/>
<path id="Vector_14" d="M377.08 464.834L375.067 460.67C376.169 460.52 377.308 460.239 378.505 459.826C379.702 459.432 380.689 458.982 381.449 458.494C382.513 457.819 383.215 457.013 383.538 456.075C383.861 455.137 383.785 454.293 383.31 453.58C382.968 453.036 382.551 452.661 382.095 452.436C381.639 452.211 381.126 452.08 380.594 452.061C380.062 452.042 379.398 452.061 378.638 452.174C377.878 452.268 377.08 452.38 376.245 452.474C374.725 452.624 373.434 452.68 372.351 452.624C371.268 452.568 370.3 452.305 369.407 451.836C368.514 451.367 367.736 450.617 367.071 449.567C366.539 448.742 366.14 447.729 365.912 446.566C365.665 445.384 365.836 444.109 366.444 442.721C367.033 441.333 368.248 440.058 370.091 438.895C372.484 437.376 374.839 436.344 377.099 435.8L378.923 439.645C376.682 440.039 374.82 440.714 373.32 441.652C372.047 442.458 371.325 443.265 371.154 444.053C371.002 444.859 371.097 445.534 371.477 446.116C372.009 446.941 372.693 447.391 373.548 447.504C374.402 447.616 375.39 447.579 376.492 447.391C378.486 447.072 380.062 446.866 381.24 446.81C382.418 446.753 383.595 446.979 384.811 447.485C386.007 447.991 387.071 448.967 387.983 450.373C388.515 451.198 388.856 452.08 389.046 453.037C389.217 453.993 389.16 455.006 388.875 456.056C388.591 457.106 388.021 458.157 387.147 459.207C386.292 460.257 385.115 461.27 383.633 462.208C381.791 463.371 379.607 464.233 377.08 464.777V464.834Z" fill="#213159"/>
<path id="Vector_15" d="M380.614 432.443L386.825 427.679C389.902 425.316 392.561 424.378 394.802 424.884C397.043 425.391 398.772 426.422 399.987 427.96C400.861 429.067 401.412 430.305 401.64 431.711C401.887 433.118 401.697 434.543 401.07 436.006C400.443 437.469 399.36 438.801 397.784 440.02L395.049 442.12L401.184 449.904L396.929 453.167L380.595 432.461L380.614 432.443ZM392.504 438.857L394.46 437.357C395.581 436.494 396.208 435.5 396.34 434.393C396.454 433.268 396.151 432.255 395.41 431.317C394.707 430.436 393.852 429.911 392.808 429.761C391.763 429.611 390.623 430.004 389.408 430.942L387.451 432.443L392.523 438.857H392.504Z" fill="#213159"/>
<path id="Vector_16" d="M403.406 413.687L407.832 409.449L433.929 421.04L429.561 425.222L423.805 422.54L415.923 430.08L418.468 435.856L414.328 439.832L403.425 413.706L403.406 413.687ZM414.081 425.785L419.589 420.514L409.218 415.488L409.161 415.544L414.081 425.785Z" fill="#213159"/>
<path id="Vector_17" d="M415.296 402.022L428.554 386.267L432.182 389.23L427.281 395.063L444.11 408.867L440.672 412.956L423.844 399.152L418.943 404.985L415.315 402.022H415.296Z" fill="#213159"/>
<path id="Vector_18" d="M458.298 380.359L462.229 382.591C461.583 384.879 460.615 386.961 459.323 388.856C458.279 390.394 457.044 391.688 455.619 392.738C454.195 393.788 452.656 394.538 451.004 394.951C449.352 395.364 447.604 395.401 445.819 395.045C444.014 394.689 442.229 393.92 440.443 392.719C438.715 391.575 437.348 390.243 436.322 388.743C435.296 387.243 434.65 385.63 434.366 383.904C434.081 382.179 434.195 380.397 434.707 378.54C435.201 376.683 436.094 374.827 437.367 372.97C438.487 371.319 439.855 369.875 441.412 368.656L445.059 371.376C443.596 372.351 442.324 373.607 441.279 375.145C440.254 376.627 439.646 378.165 439.437 379.74C439.228 381.316 439.456 382.816 440.159 384.261C440.842 385.686 442.001 386.943 443.596 388.012C445.363 389.193 447.053 389.793 448.668 389.831C450.282 389.85 451.726 389.474 452.979 388.668C454.233 387.862 455.316 386.83 456.17 385.555C457.272 383.942 457.994 382.216 458.298 380.359Z" fill="#213159"/>
<path id="Vector_19" d="M442.514 365.73L445.021 361.023L454.499 365.955L459.532 356.521L450.055 351.589L452.562 346.881L476.076 359.128L473.569 363.836L463.388 358.528L458.355 367.962L468.535 373.27L466.028 377.978L442.514 365.73Z" fill="#213159"/>
<path id="Vector_20" d="M478.66 353.089L454.215 342.755L456.342 337.859L480.787 348.194L478.66 353.089Z" fill="#213159"/>
<path id="Vector_21" d="M458.26 333.865L460.463 327.319L479.248 323.887L483.104 323.699L483.142 323.587L478.64 322.236L463.787 317.379L465.478 312.315L490.72 320.567L488.517 327.131L469.087 330.414L465.858 330.751L465.82 330.864L470.321 332.214L485.174 337.072L483.484 342.117L458.241 333.865H458.26Z" fill="#213159"/>
<path id="Vector_22" d="M471.594 287.708L476.191 288.927C474.728 290.933 473.721 293.278 473.171 295.979C472.791 297.817 472.867 299.467 473.379 300.911C473.892 302.355 474.785 303.537 476.02 304.475C477.254 305.413 478.755 306.032 480.502 306.388C482.212 306.725 483.807 306.707 485.289 306.35C486.77 305.994 488.043 305.244 489.068 304.137C490.094 303.031 490.797 301.586 491.158 299.786C491.442 298.379 491.499 297.198 491.347 296.222L485.137 294.985L484.073 300.255L479.989 299.448L482.117 288.964L495.925 291.702C496.191 295.191 496.058 298.286 495.507 300.986C494.918 303.856 493.855 306.2 492.297 308.02C490.74 309.839 488.859 311.077 486.637 311.714C484.415 312.352 482.003 312.427 479.4 311.902C477.14 311.452 475.241 310.702 473.683 309.633C472.126 308.563 470.948 307.269 470.113 305.75C469.277 304.231 468.783 302.562 468.612 300.761C468.441 298.942 468.555 297.048 468.954 295.041C469.524 292.246 470.397 289.808 471.613 287.726L471.594 287.708Z" fill="#213159"/>
<path id="Vector_23" d="M494.519 251.547L499.059 251.341C499.743 253.61 500.066 255.898 499.99 258.168C499.933 260.025 499.591 261.769 498.964 263.4C498.337 265.051 497.444 266.476 496.267 267.695C495.089 268.915 493.646 269.852 491.936 270.509C490.227 271.165 488.289 271.465 486.124 271.39C484.054 271.334 482.174 270.94 480.483 270.209C478.812 269.496 477.387 268.464 476.21 267.17C475.032 265.857 474.158 264.301 473.588 262.463C473.019 260.625 472.753 258.599 472.829 256.348C472.886 254.36 473.246 252.429 473.911 250.572L478.47 250.947C477.767 252.541 477.368 254.285 477.311 256.123C477.254 257.924 477.558 259.537 478.242 260.981C478.907 262.425 479.932 263.569 481.281 264.413C482.629 265.257 484.282 265.707 486.219 265.764C488.346 265.82 490.113 265.445 491.48 264.62C492.867 263.794 493.874 262.707 494.5 261.356C495.127 260.006 495.469 258.58 495.526 257.042C495.583 255.092 495.241 253.254 494.519 251.528V251.547Z" fill="#213159"/>
<path id="Vector_24" d="M473.113 247.402L472.106 231.76L476.817 231.46L477.482 241.794L483.465 241.419L482.857 232.023L487.206 231.742L487.814 241.138L494.595 240.707L493.93 230.372L498.641 230.072L499.647 245.714L473.113 247.384V247.402Z" fill="#213159"/>
<path id="Vector_25" d="M471.879 228.291L470.721 221.501L485.688 209.779L489.011 207.828V207.716L484.358 208.597L468.935 211.186L468.023 205.934L494.235 201.545L495.412 208.354L479.8 220.245L477.102 222.026V222.139L481.737 221.257L497.179 218.669L498.071 223.921L471.86 228.309L471.879 228.291Z" fill="#213159"/>
<path id="Vector_26" d="M467.51 203.871L461.85 184.159L466.389 182.884L468.478 190.179L489.523 184.271L490.986 189.392L469.941 195.281L472.03 202.577L467.491 203.852L467.51 203.871Z" fill="#213159"/>
<path id="Vector_27" d="M460.995 182.058L455.278 167.429L459.665 165.76L463.445 175.419L469.048 173.281L465.61 164.503L469.694 162.947L473.132 171.724L479.476 169.305L475.696 159.646L480.084 157.976L485.801 172.606L460.995 182.058Z" fill="#213159"/>
<path id="Vector_28" d="M453.416 163.172L449.162 154.882C447.642 151.919 447.205 149.555 447.87 147.792C448.535 146.029 449.77 144.698 451.555 143.797C453.188 142.972 454.67 142.803 456 143.254C457.348 143.704 458.469 144.473 459.399 145.56L459.456 145.523C459.304 144.885 459.342 144.266 459.551 143.685C459.779 143.104 460.159 142.485 460.691 141.828L467.909 133.407L470.644 138.715L464.68 145.504C464.053 146.217 463.692 146.892 463.578 147.549C463.464 148.205 463.597 148.899 463.977 149.649L464.908 151.45L474.67 146.555L477.101 151.3L453.397 163.191L453.416 163.172ZM454.689 156.57L461.204 153.306L459.893 150.756C459.171 149.349 458.298 148.505 457.272 148.242C456.246 147.961 455.335 148.036 454.556 148.43C453.739 148.843 453.15 149.48 452.771 150.381C452.391 151.281 452.6 152.481 453.397 154.019L454.708 156.57H454.689Z" fill="#213159"/>
</g>
<g id="Group_2">
<path id="Vector_29" d="M30.8086 372.988L22.9072 357.759L42.3757 347.913L40.9892 345.249L50.1441 340.617L52.5753 345.287L47.599 347.8L54.8926 361.867L59.8689 359.353L62.3001 364.023L53.1451 368.656L51.7586 365.974C49.9732 365.861 48.3397 365.936 46.8392 366.18C45.3387 366.424 43.9332 366.799 42.6037 367.287C41.2741 367.775 39.8686 368.412 38.3871 369.162L30.8086 372.988ZM29.574 360.385L32.67 366.368L36.0508 364.661C37.7603 363.798 39.2608 363.104 40.5333 362.579C41.8059 362.054 43.1735 361.66 44.617 361.36C46.0605 361.079 47.58 360.966 49.1945 361.041L44.8449 352.658L29.574 360.385Z" fill="#213159"/>
<path id="Vector_30" d="M19.2412 349.657L17.3988 344.649L30.2385 340.017L36.3545 337.935L36.3165 337.822L32.0239 337.372L13.5621 334.24L11.3398 328.257L36.3165 319.254L38.1589 324.262L25.2812 328.913L19.2032 330.977L19.2412 331.089L23.6477 331.408L41.9956 334.653L44.2179 340.636L19.2412 349.638V349.657Z" fill="#213159"/>
<path id="Vector_31" d="M25.357 297.498L29.6686 296.129C30.9412 298.136 31.8529 300.255 32.3847 302.468C32.8215 304.269 32.9545 306.032 32.8025 307.795C32.6316 309.539 32.1568 311.152 31.34 312.652C30.5233 314.153 29.3837 315.428 27.9022 316.497C26.4207 317.566 24.6353 318.354 22.546 318.86C20.5326 319.348 18.6143 319.442 16.7909 319.198C14.9865 318.935 13.334 318.335 11.8525 317.36C10.371 316.404 9.11745 315.109 8.0728 313.496C7.02815 311.883 6.23041 309.989 5.69859 307.814C5.22375 305.882 5.0718 303.931 5.20475 301.943L9.68726 301.118C9.42135 302.843 9.51632 304.606 9.95317 306.407C10.371 308.151 11.1118 309.633 12.1374 310.852C13.1631 312.071 14.4547 312.915 15.9932 313.384C17.5316 313.853 19.2411 313.853 21.1214 313.421C23.1918 312.934 24.7872 312.109 25.8888 310.946C26.9905 309.783 27.6743 308.47 27.9402 307.007C28.2061 305.544 28.1301 304.081 27.7692 302.581C27.3134 300.686 26.4966 298.998 25.319 297.536L25.357 297.498Z" fill="#213159"/>
<path id="Vector_32" d="M3.47547 295.81L0.797363 274.935L27.1796 271.653L27.8633 276.942L5.81169 279.699L7.12225 290.015L29.1739 287.258L29.8577 292.528L3.47547 295.81Z" fill="#213159"/>
<path id="Vector_33" d="M0.417959 267.658L0.0380859 251.979L4.74851 251.866L4.99543 262.219L10.9974 262.069L10.7695 252.654L15.138 252.541L15.366 261.957L22.1657 261.788L21.9188 251.435L26.6292 251.322L27.0091 267.002L0.436953 267.639L0.417959 267.658Z" fill="#213159"/>
<path id="Vector_34" d="M0.0189936 247.777L1.38654 227.334L6.09697 227.634L5.58414 235.192L27.4079 236.618L27.047 241.926L5.22326 240.5L4.71043 248.059L0 247.759L0.0189936 247.777Z" fill="#213159"/>
<path id="Vector_35" d="M1.89893 222.833L2.81062 217.581L11.7566 219.082C13.0482 219.307 14.1119 219.176 14.9666 218.688C15.8023 218.2 16.4101 216.887 16.79 214.749C17.0559 213.249 17.1128 211.598 16.9989 209.798L4.52005 207.697L5.43175 202.446L31.643 206.853L30.7313 212.105L21.4054 210.548C21.4434 212.349 21.3484 213.999 21.0825 215.481C20.7027 217.675 20.1708 219.438 19.4681 220.751C18.7653 222.064 17.9866 223.02 17.0939 223.583C16.2201 224.146 15.3274 224.483 14.4347 224.558C13.542 224.633 12.5734 224.596 11.5667 224.427L1.89893 222.795V222.833Z" fill="#213159"/>
<path id="Vector_36" d="M7.10449 195.431L11.3211 180.314L15.8606 181.552L13.0685 191.53L18.8616 193.106L21.3877 184.028L25.6043 185.172L23.0782 194.25L29.631 196.031L32.423 186.054L36.9625 187.291L32.7459 202.408L7.10449 195.45V195.431Z" fill="#213159"/>
<path id="Vector_37" d="M13.314 174.275L16.106 167.017C17.4926 163.416 19.278 161.24 21.4433 160.527C23.6085 159.814 25.6408 159.796 27.5022 160.49C28.8128 160.977 29.9524 161.765 30.9021 162.834C31.8518 163.903 32.4406 165.235 32.6875 166.791C32.9344 168.348 32.6875 170.055 32.0037 171.893L30.7881 175.081L40.133 178.57L38.2336 183.54L13.3709 174.256L13.314 174.275ZM26.8374 173.637L27.7112 171.349C28.224 170.036 28.224 168.855 27.7491 167.842C27.2743 166.829 26.4576 166.098 25.337 165.685C24.2733 165.291 23.2666 165.291 22.298 165.685C21.3293 166.098 20.5695 167.017 20.0187 168.442L19.145 170.73L26.8564 173.618L26.8374 173.637Z" fill="#213159"/>
<path id="Vector_38" d="M22.2231 151.731L24.6733 146.986L36.8483 153.119L42.5464 156.12L42.6033 156.026L40.0202 152.613L29.7826 137.121L32.7266 131.438L56.4117 143.385L53.9615 148.13L41.7486 141.96L36.0885 138.977L36.0315 139.09L38.7856 142.503L48.8712 157.995L45.9272 163.678L22.2421 151.731H22.2231Z" fill="#213159"/>
<path id="Vector_39" d="M38.9365 107.806L41.7286 106.362C43.514 108.988 43.419 111.726 41.4626 114.577C39.5063 117.428 36.9612 118.515 33.8462 117.859L34.1691 114.764C35.8975 115.139 37.379 114.427 38.5946 112.645C39.8102 110.863 39.9242 109.25 38.9365 107.806ZM36.6952 124.798L39.7152 120.391L51.0355 127.968L56.3157 131.644L56.3727 131.55L54.2264 127.856L45.9831 111.238L49.6109 105.968L71.6246 120.691L68.6046 125.099L57.2464 117.503L52.0041 113.845L51.9282 113.939L54.2454 117.653L62.3177 134.251L58.6899 139.521L36.6762 124.798H36.6952Z" fill="#213159"/>
<path id="Vector_40" d="M54.3784 99.91L57.9112 95.8964L66.0025 102.836L73.0872 94.7898L64.9959 87.8503L68.5287 83.8367L88.605 101.054L85.0722 105.068L76.3731 97.6219L69.2884 105.668L77.9875 113.114L74.4547 117.127L54.3784 99.91Z" fill="#213159"/>
<path id="Vector_41" d="M82.4131 70.2952L87.2375 66.3941L97.3991 70.1076L99.2035 70.9891L99.2984 70.9141L98.8426 68.9448L97.1712 58.3668L101.578 54.8032L104.199 72.8647L111.037 81.0983L106.858 84.4743L99.9822 76.1844L82.4321 70.3139L82.4131 70.2952Z" fill="#213159"/>
<path id="Vector_42" d="M105.662 51.9336L110.182 49.0453L116.013 57.9166L125.073 52.1212L119.242 43.2499L123.763 40.3616L138.217 62.3992L133.696 65.2875L127.447 55.741L118.387 61.5364L124.636 71.0829L120.116 73.9712L105.662 51.9336Z" fill="#213159"/>
<path id="Vector_43" d="M134.456 34.6413L150.011 27.1204L159.622 46.5322L162.338 45.2193L166.859 54.3532L162.091 56.6601L159.641 51.7087L145.263 58.6482L147.713 63.5996L142.946 65.9065L138.425 56.7726L141.16 55.4598C141.293 53.6968 141.255 52.0838 141.046 50.6021C140.818 49.1204 140.477 47.7138 140.002 46.4009C139.527 45.088 138.919 43.6814 138.178 42.2185L134.437 34.6788L134.456 34.6413ZM147.238 33.6472L141.141 36.5918L142.813 39.949C143.648 41.6558 144.332 43.1375 144.826 44.4128C145.339 45.6882 145.719 47.0386 145.985 48.464C146.251 49.8894 146.327 51.4086 146.232 52.984L154.798 48.8391L147.257 33.6097L147.238 33.6472Z" fill="#213159"/>
<path id="Vector_44" d="M166.043 36.8355L164.58 32.7656L175.122 29.0708C174.324 27.6266 173.089 26.4638 171.399 25.601C169.708 24.7383 167.429 24.7945 164.542 25.8073C162.605 26.4825 160.933 27.4391 159.49 28.6582L157.667 24.8321C159.566 23.3691 161.731 22.2063 164.181 21.3435C166.954 20.3683 169.405 20.0869 171.513 20.4996C173.621 20.9122 175.35 21.6999 176.698 22.844C178.047 23.9881 179.053 25.1321 179.737 26.2762C180.421 27.4203 180.915 28.3956 181.2 29.2021C182.206 31.9966 182.491 34.5849 182.073 36.948C181.655 39.3112 180.611 41.3368 178.958 43.0248C177.306 44.7128 175.16 46.0257 172.539 46.9447C170.316 47.7136 167.961 48.1075 165.416 48.1263L164.523 43.7375C166.802 43.8875 169.044 43.5874 171.247 42.8185C172.975 42.2183 174.305 41.3743 175.255 40.3053C176.185 39.2362 176.755 38.0921 176.926 36.8543C177.097 35.6164 176.983 34.3785 176.565 33.1407L166.024 36.8355H166.043Z" fill="#213159"/>
<path id="Vector_45" d="M206.973 31.3778L208.36 35.6353C206.328 36.8919 204.181 37.7922 201.94 38.3173C200.117 38.7487 198.331 38.88 196.546 38.7299C194.779 38.5611 193.146 38.0922 191.626 37.2858C190.126 36.4793 188.815 35.354 187.733 33.891C186.65 32.4281 185.852 30.6651 185.34 28.602C184.846 26.614 184.751 24.7197 185.017 22.9191C185.283 21.1374 185.89 19.5057 186.878 18.0427C187.847 16.5798 189.157 15.342 190.791 14.3104C192.424 13.2789 194.343 12.4911 196.565 11.966C198.521 11.4971 200.497 11.3471 202.51 11.4783L203.346 15.9046C201.598 15.642 199.813 15.7358 197.989 16.1672C196.223 16.5798 194.722 17.3113 193.488 18.3241C192.253 19.3369 191.399 20.6122 190.924 22.1314C190.449 23.6506 190.449 25.3386 190.886 27.1954C191.38 29.2397 192.215 30.8152 193.393 31.9217C194.57 33.0095 195.9 33.6847 197.382 33.9473C198.863 34.1911 200.345 34.1349 201.864 33.7785C203.782 33.3284 205.492 32.5219 206.973 31.3778Z" fill="#213159"/>
<path id="Vector_46" d="M208.645 9.77159L213.982 9.11515L215.312 19.6182L226.024 18.2865L224.695 7.78351L230.032 7.12708L233.337 33.1783L228 33.8348L226.575 22.5628L215.863 23.8944L217.287 35.1664L211.95 35.8228L208.645 9.77159Z" fill="#213159"/>
<path id="Vector_47" d="M237.459 6.69574L242.853 6.60197L243.081 20.1059V26.4827H243.195L245.037 22.6191L254.078 6.41441L260.536 6.30188L260.973 32.5594L255.579 32.6532L255.351 19.1118V12.7725H255.256L253.509 16.7674L244.392 32.822L237.934 32.9158L237.497 6.65823L237.459 6.69574Z" fill="#213159"/>
<path id="Vector_48" d="M268.666 6.84572L274.022 7.46465L272.446 20.8748L271.591 27.1953H271.705L274.041 23.613L285.171 8.72126L291.591 9.45272L288.514 35.5415L283.158 34.9225L284.734 21.4749L285.589 15.1919H285.475L283.196 18.9242L272.009 33.6472L265.589 32.9157L268.666 6.82696V6.84572ZM284.962 0.97528L287.546 2.73829C286.007 5.51409 283.519 6.69568 280.043 6.30181C276.586 5.90795 274.421 4.18245 273.566 1.14408L276.491 0C276.966 1.68799 278.277 2.66327 280.442 2.90709C282.607 3.15091 284.108 2.51322 284.962 0.97528Z" fill="#213159"/>
<path id="Vector_49" d="M311.097 13.4851L331.022 19.2055L329.711 23.6693L322.341 21.5499L316.226 42.2934L311.059 40.8117L317.175 20.0683L309.806 17.9489L311.116 13.4851H311.097Z" fill="#213159"/>
<path id="Vector_50" d="M347.47 25.2259C349.769 26.1824 351.63 27.4953 353.055 29.2208C354.479 30.9463 355.296 32.9344 355.543 35.2225C355.79 37.5107 355.353 39.9677 354.251 42.5747C353.15 45.1817 351.687 47.2072 349.864 48.6514C348.04 50.0956 346.008 50.9208 343.786 51.1271C341.563 51.3334 339.303 50.9583 336.986 50.0205C334.669 49.064 332.807 47.7324 331.402 46.0256C329.996 44.3189 329.161 42.3121 328.914 40.0239C328.667 37.717 329.104 35.2788 330.205 32.6718C331.307 30.0648 332.769 28.0392 334.593 26.5951C336.416 25.1509 338.448 24.3257 340.671 24.1193C342.893 23.913 345.153 24.2881 347.47 25.2259ZM348.249 42.012L334.859 36.4979C333.947 39.3675 333.909 41.5994 334.783 43.1936C335.656 44.7878 336.872 45.8944 338.467 46.5508C339.132 46.8321 339.873 47.0009 340.652 47.0947C341.449 47.1697 342.285 47.0947 343.159 46.8321C344.033 46.5695 344.925 46.0632 345.799 45.2754C346.673 44.4877 347.489 43.3999 348.23 42.012H348.249ZM349.826 37.9796C350.301 36.1603 350.396 34.6224 350.092 33.347C349.788 32.0716 349.256 31.0776 348.496 30.3461C347.736 29.6147 346.92 29.0708 346.027 28.6957C345.134 28.3206 344.147 28.133 343.102 28.1142C342.057 28.0955 340.956 28.4331 339.816 29.1083C338.676 29.7835 337.632 30.9276 336.663 32.5405L349.845 37.9796H349.826Z" fill="#213159"/>
<path id="Vector_51" d="M365.324 33.5722L372.941 37.7922C373.985 38.3736 375.011 39.1051 375.999 39.9678C376.986 40.8306 377.708 41.9559 378.145 43.3063C378.582 44.6567 378.354 46.1196 377.442 47.7138C376.549 49.308 375.467 50.2833 374.251 50.6771C373.017 51.071 371.839 51.146 370.68 50.9022L370.642 50.9585C371.934 51.9338 372.77 53.1716 373.131 54.6533C373.491 56.135 373.264 57.6166 372.409 59.1171C371.839 60.1111 371.041 60.9739 370.016 61.6678C368.99 62.3618 367.603 62.6806 365.856 62.6056C364.109 62.5306 362.038 61.8366 359.645 60.505L352.333 56.4538L365.343 33.5535L365.324 33.5722ZM362.703 49.0642L359.056 55.4785L361.677 56.9227C362.57 57.4103 363.406 57.6917 364.166 57.7667C364.925 57.8417 365.609 57.7292 366.217 57.4103C366.825 57.0915 367.281 56.6414 367.641 56.0037C368.857 53.8656 368.078 52.0275 365.324 50.5083L362.703 49.0642ZM367.983 39.7615L364.754 45.4631L367.053 46.7385C368.439 47.5075 369.56 47.7138 370.414 47.3949C371.269 47.0574 371.896 46.5697 372.276 45.8945C372.675 45.1818 372.789 44.3753 372.618 43.4938C372.447 42.6123 371.592 41.7683 370.092 40.9243L368.002 39.7615H367.983Z" fill="#213159"/>
</g>
<path id="Vector_52" d="M344.108 162.009L340.917 244.57L327.831 231.629L166.441 390.994L139.603 417.495C118.217 403.278 99.7737 385.067 85.3765 363.948L98.2922 351.195L112.215 337.447L273.604 178.082L260.479 165.141L344.108 162.009Z" fill="#FFF200"/>
<circle cx="273.853" cy="212.766" r="19.823" />
</g>
</svg>
